<svg width="22" height="22" viewBox="0 0 22 22" fill="none" xmlns="http://www.w3.org/2000/svg">
<path d="M8.68265 13.9999V17.9999C8.68265 18.7955 8.99872 19.5586 9.56133 20.1212C10.1239 20.6838 10.887 20.9999 11.6826 20.9999L15.6826 11.9999V0.999873H4.40265C3.92032 0.99442 3.45227 1.16347 3.08474 1.47587C2.71721 1.78827 2.47497 2.22297 2.40265 2.69987L1.02265 11.6999C0.97914 11.9865 0.998473 12.2792 1.07931 12.5576C1.16014 12.8361 1.30055 13.0936 1.49079 13.3124C1.68103 13.5311 1.91657 13.7059 2.18108 13.8247C2.44558 13.9434 2.73274 14.0032 3.02265 13.9999H8.68265ZM15.6826 0.999873H18.3526C18.9186 0.989864 19.4685 1.18801 19.8981 1.55669C20.3276 1.92538 20.6068 2.43893 20.6826 2.99987V9.99987C20.6068 10.5608 20.3276 11.0744 19.8981 11.4431C19.4685 11.8117 18.9186 12.0099 18.3526 11.9999H15.6826" fill="#232CFF"/>
<path d="M8.68265 13.9999V17.9999C8.68265 18.7955 8.99872 19.5586 9.56133 20.1212C10.1239 20.6838 10.887 20.9999 11.6826 20.9999L15.6826 11.9999V0.999873H4.40265C3.92032 0.99442 3.45227 1.16347 3.08474 1.47587C2.71721 1.78827 2.47497 2.22297 2.40265 2.69987L1.02265 11.6999C0.97914 11.9865 0.998473 12.2792 1.07931 12.5576C1.16014 12.8361 1.30055 13.0936 1.49079 13.3124C1.68103 13.5311 1.91657 13.7059 2.18108 13.8247C2.44558 13.9434 2.73274 14.0032 3.02265 13.9999H8.68265ZM15.6826 0.999873H18.3526C18.9186 0.989864 19.4685 1.18801 19.8981 1.55669C20.3276 1.92538 20.6068 2.43893 20.6826 2.99987V9.99987C20.6068 10.5608 20.3276 11.0744 19.8981 11.4431C19.4685 11.8117 18.9186 12.0099 18.3526 11.9999H15.6826" fill="black" fill-opacity="0.2"/>
<path d="M15.6826 11.9999L11.6826 20.9999C10.887 20.9999 10.1239 20.6838 9.56133 20.1212C8.99872 19.5586 8.68265 18.7955 8.68265 17.9999V13.9999H3.02265C2.73274 14.0032 2.44558 13.9434 2.18108 13.8247C1.91657 13.7059 1.68103 13.5311 1.49079 13.3124C1.30055 13.0936 1.16014 12.8361 1.07931 12.5576C0.998473 12.2792 0.97914 11.9865 1.02265 11.6999L2.40265 2.69987C2.47497 2.22297 2.71721 1.78827 3.08474 1.47587C3.45227 1.16347 3.92032 0.99442 4.40265 0.999873H15.6826M15.6826 11.9999V0.999873M15.6826 11.9999H18.3526C18.9186 12.0099 19.4685 11.8117 19.8981 11.4431C20.3276 11.0744 20.6068 10.5608 20.6826 9.99987V2.99987C20.6068 2.43893 20.3276 1.92538 19.8981 1.55669C19.4685 1.18801 18.9186 0.989864 18.3526 0.999873H15.6826" stroke="#F8F8F8" stroke-width="2" stroke-linecap="round" stroke-linejoin="round"/>
</svg>
