<svg width="23" height="22" viewBox="0 0 23 22" fill="none" xmlns="http://www.w3.org/2000/svg">
<path d="M13.6826 8V4C13.6826 3.20435 13.3665 2.44129 12.8039 1.87868C12.2413 1.31607 11.4783 1 10.6826 1L6.68262 10V21H17.9626C18.4449 21.0055 18.913 20.8364 19.2805 20.524C19.6481 20.2116 19.8903 19.7769 19.9626 19.3L21.3426 10.3C21.3861 10.0134 21.3668 9.72068 21.286 9.44225C21.2051 9.16382 21.0647 8.90629 20.8745 8.68751C20.6842 8.46873 20.4487 8.29393 20.1842 8.17522C19.9197 8.0565 19.6325 7.99672 19.3426 8H13.6826ZM6.68262 21H3.68262C3.15218 21 2.64348 20.7893 2.2684 20.4142C1.89333 20.0391 1.68262 19.5304 1.68262 19V12C1.68262 11.4696 1.89333 10.9609 2.2684 10.5858C2.64348 10.2107 3.15218 10 3.68262 10H6.68262" fill="#232CFF"/>
<path d="M6.68262 10L10.6826 1C11.4783 1 12.2413 1.31607 12.8039 1.87868C13.3665 2.44129 13.6826 3.20435 13.6826 4V8H19.3426C19.6325 7.99672 19.9197 8.0565 20.1842 8.17522C20.4487 8.29393 20.6842 8.46873 20.8745 8.68751C21.0647 8.90629 21.2051 9.16382 21.286 9.44225C21.3668 9.72068 21.3861 10.0134 21.3426 10.3L19.9626 19.3C19.8903 19.7769 19.6481 20.2116 19.2805 20.524C18.913 20.8364 18.4449 21.0055 17.9626 21H6.68262M6.68262 10V21M6.68262 10H3.68262C3.15218 10 2.64348 10.2107 2.2684 10.5858C1.89333 10.9609 1.68262 11.4696 1.68262 12V19C1.68262 19.5304 1.89333 20.0391 2.2684 20.4142C2.64348 20.7893 3.15218 21 3.68262 21H6.68262" stroke="#F8F8F8" stroke-width="2" stroke-linecap="round" stroke-linejoin="round"/>
</svg>
