<svg xmlns="http://www.w3.org/2000/svg" width="22" height="22" viewBox="0 0 22 22" fill="none">
<path d="M5.43162 9.65591C3.52279 11.5647 3.52279 14.6596 5.43162 16.5684C7.34045 18.4772 10.4353 18.4772 12.3441 16.5684L13.4962 15.4163L11.9601 13.8802L10.808 15.0323C9.74753 16.0927 8.02818 16.0927 6.96772 15.0323C5.90727 13.9718 5.90727 12.2525 6.96772 11.192L8.1198 10.0399L6.5837 8.50383L5.43162 9.65591Z" fill="#F8F8F8" fill-opacity="0.6"/>
<path d="M8.1198 12.3441L9.65591 13.8802L13.8802 9.65591L12.3441 8.1198L8.1198 12.3441Z" fill="#F8F8F8" fill-opacity="0.6"/>
<path d="M8.50383 6.5837L10.0399 8.1198L11.192 6.96772C12.2525 5.90727 13.9718 5.90727 15.0323 6.96772C16.0927 8.02818 16.0927 9.74753 15.0323 10.808L13.8802 11.9601L15.4163 13.4962L16.5684 12.3441C18.4772 10.4353 18.4772 7.34045 16.5684 5.43162C14.6596 3.52279 11.5647 3.52279 9.65591 5.43162L8.50383 6.5837Z" fill="#F8F8F8" fill-opacity="0.6"/>
</svg>